<?xml version="1.0" encoding="utf-8"?>
<!-- Generator: Adobe Illustrator 24.0.1, SVG Export Plug-In . SVG Version: 6.00 Build 0)  -->
<svg version="1.0" id="Camada_1" xmlns="http://www.w3.org/2000/svg" xmlns:xlink="http://www.w3.org/1999/xlink" x="0px" y="0px"
	 viewBox="0 0 114.3 143.7" style="enable-background:new 0 0 114.3 143.7;" xml:space="preserve">
<style type="text/css">
	.st0{fill:url(#SVGID_1_);}
	.st1{fill:#706F6F;}
	.st2{fill:#FFFFFF;}
</style>
<radialGradient id="SVGID_1_" cx="5.7797" cy="2.3876" r="152.2565" gradientUnits="userSpaceOnUse">
	<stop  offset="0" style="stop-color:#009FE3"/>
	<stop  offset="0.3" style="stop-color:#F39200"/>
	<stop  offset="0.4" style="stop-color:#F39200"/>
	<stop  offset="0.75" style="stop-color:#B51F1F"/>
</radialGradient>
<path class="st0" d="M104.3,114.3H10c-5.5,0-10-4.5-10-10V10C0,4.5,4.5,0,10,0h94.3c5.5,0,10,4.5,10,10v94.3
	C114.3,109.8,109.8,114.3,104.3,114.3z"/>
<g>
	<path class="st1" d="M5,124.7c0,0.5-0.2,0.9-0.5,1.1c-0.3,0.3-0.7,0.4-1.1,0.4c-0.5,0-0.8-0.1-1.1-0.4c-0.3-0.3-0.5-0.7-0.5-1.1
		s0.2-0.9,0.5-1.2c0.3-0.3,0.7-0.5,1.1-0.5c0.4,0,0.8,0.2,1.1,0.5C4.8,123.8,5,124.2,5,124.7z M4.9,138.7c-0.1,0-0.2,0.1-0.4,0.1
		c-0.2,0-0.4,0-0.7,0c-0.3,0-0.6,0-0.8-0.1c-0.2-0.1-0.4-0.1-0.6-0.3c-0.2-0.1-0.3-0.3-0.4-0.6C2,137.6,2,137.3,2,137v-8.8
		c0,0,0.1,0,0.3-0.1c0.2,0,0.4,0,0.7,0s0.5,0,0.7,0.1c0.2,0,0.4,0.1,0.6,0.3s0.3,0.3,0.5,0.5c0.1,0.2,0.2,0.5,0.2,0.9V138.7z"/>
	<path class="st1" d="M9.7,129.2c0.1-0.1,0.2-0.3,0.4-0.4s0.3-0.3,0.5-0.4c0.2-0.1,0.4-0.2,0.7-0.3c0.3-0.1,0.5-0.1,0.8-0.1
		c0.2,0,0.4,0,0.6,0c0.2,0,0.4,0.1,0.5,0.2c0.2,0.1,0.3,0.2,0.4,0.3s0.2,0.3,0.2,0.5c0,0.3-0.1,0.7-0.2,1.1
		c-0.2,0.4-0.3,0.8-0.5,1.1c-0.2-0.2-0.5-0.4-0.7-0.5s-0.5-0.2-0.9-0.2c-0.5,0-0.8,0.1-1.1,0.4c-0.3,0.3-0.5,0.6-0.5,0.9v6.8h-3
		v-10.4c0.1,0,0.2,0,0.3,0c0.1,0,0.2,0,0.3,0c0.1,0,0.3,0,0.4,0c0.5,0,0.9,0.1,1.2,0.3C9.4,128.5,9.7,128.8,9.7,129.2z"/>
	<path class="st1" d="M17.2,129.2c0.1-0.1,0.2-0.3,0.4-0.4s0.3-0.3,0.5-0.4c0.2-0.1,0.4-0.2,0.7-0.3c0.3-0.1,0.5-0.1,0.8-0.1
		c0.2,0,0.4,0,0.6,0c0.2,0,0.4,0.1,0.5,0.2c0.2,0.1,0.3,0.2,0.4,0.3s0.2,0.3,0.2,0.5c0,0.3-0.1,0.7-0.2,1.1
		c-0.2,0.4-0.3,0.8-0.5,1.1c-0.2-0.2-0.5-0.4-0.7-0.5s-0.5-0.2-0.9-0.2c-0.5,0-0.8,0.1-1.1,0.4c-0.3,0.3-0.5,0.6-0.5,0.9v6.8h-3
		v-10.4c0.1,0,0.2,0,0.3,0c0.1,0,0.2,0,0.3,0c0.1,0,0.3,0,0.4,0c0.5,0,0.9,0.1,1.2,0.3C16.9,128.5,17.1,128.8,17.2,129.2z"/>
	<path class="st1" d="M24.9,124.7c0,0.5-0.2,0.9-0.5,1.1c-0.3,0.3-0.7,0.4-1.1,0.4c-0.5,0-0.8-0.1-1.1-0.4c-0.3-0.3-0.5-0.7-0.5-1.1
		s0.2-0.9,0.5-1.2c0.3-0.3,0.7-0.5,1.1-0.5c0.4,0,0.8,0.2,1.1,0.5C24.7,123.8,24.9,124.2,24.9,124.7z M24.8,138.7
		c-0.1,0-0.2,0.1-0.4,0.1c-0.2,0-0.4,0-0.7,0c-0.3,0-0.6,0-0.8-0.1c-0.2-0.1-0.4-0.1-0.6-0.3c-0.2-0.1-0.3-0.3-0.4-0.6
		c-0.1-0.2-0.1-0.5-0.1-0.9v-8.8c0,0,0.1,0,0.3-0.1c0.2,0,0.4,0,0.7,0s0.5,0,0.7,0.1c0.2,0,0.4,0.1,0.6,0.3s0.3,0.3,0.5,0.5
		c0.1,0.2,0.2,0.5,0.2,0.9V138.7z"/>
	<path class="st1" d="M36.1,137.8c0,0.9-0.1,1.7-0.3,2.4s-0.5,1.3-0.9,1.8c-0.4,0.5-1,0.9-1.7,1.2c-0.7,0.3-1.6,0.4-2.6,0.4
		c-0.9,0-1.6-0.1-2.2-0.2c-0.6-0.1-1-0.3-1.4-0.5c-0.3-0.2-0.5-0.3-0.6-0.5c-0.1-0.2-0.1-0.3-0.1-0.5c0-0.2,0.1-0.5,0.3-0.8
		c0.2-0.3,0.4-0.6,0.6-0.8c0.1,0.1,0.2,0.2,0.4,0.4c0.2,0.1,0.4,0.3,0.7,0.4c0.3,0.1,0.6,0.2,0.9,0.3s0.7,0.1,1.1,0.1
		c0.6,0,1-0.1,1.4-0.2s0.6-0.4,0.8-0.7c0.2-0.3,0.3-0.6,0.4-1c0.1-0.4,0.1-0.9,0.1-1.4v-0.4c-0.2,0.2-0.5,0.5-1,0.7
		c-0.5,0.2-1,0.3-1.7,0.3c-0.5,0-1.1-0.1-1.6-0.3s-1-0.5-1.4-0.9c-0.4-0.4-0.7-0.9-0.9-1.6c-0.2-0.7-0.4-1.5-0.4-2.5
		c0-1,0.1-1.9,0.4-2.6c0.2-0.7,0.6-1.3,1-1.7c0.4-0.4,0.9-0.8,1.4-1c0.5-0.2,1.1-0.3,1.6-0.3c0.6,0,1.2,0.1,1.6,0.3
		c0.4,0.2,0.8,0.5,1,0.8c0.1-0.3,0.3-0.6,0.7-0.7c0.3-0.1,0.7-0.2,1.1-0.2c0.1,0,0.2,0,0.4,0s0.2,0,0.4,0c0.1,0,0.2,0,0.3,0V137.8z
		 M29.4,133.3c0,1,0.2,1.8,0.5,2.4c0.3,0.6,0.9,0.9,1.7,0.9c0.5,0,0.9-0.1,1.2-0.3c0.3-0.2,0.4-0.5,0.4-0.8v-4.7
		c-0.1-0.1-0.3-0.3-0.6-0.4c-0.3-0.2-0.6-0.2-1-0.2C30.2,130.1,29.4,131.2,29.4,133.3z"/>
	<path class="st1" d="M46.6,136c0,1.2,0.2,2,0.5,2.5c-0.3,0.1-0.5,0.2-0.7,0.2c-0.2,0-0.5,0.1-0.7,0.1c-0.5,0-0.9-0.1-1.2-0.3
		c-0.3-0.2-0.4-0.5-0.5-0.9c-0.3,0.3-0.7,0.6-1.3,0.9c-0.5,0.2-1.2,0.4-1.9,0.4c-0.4,0-0.8-0.1-1.2-0.2c-0.4-0.1-0.8-0.3-1.1-0.5
		c-0.3-0.2-0.6-0.6-0.8-1c-0.2-0.4-0.3-0.9-0.3-1.5c0-0.7,0.2-1.4,0.5-1.8s0.8-0.8,1.4-1.1c0.5-0.3,1.1-0.5,1.8-0.6s1.2-0.2,1.7-0.2
		c0.2,0,0.3,0,0.5,0s0.3,0,0.5,0v-0.4c0-0.6-0.2-1-0.5-1.2c-0.3-0.2-0.8-0.4-1.5-0.4c-0.6,0-1.2,0.1-1.7,0.3c-0.5,0.2-1,0.4-1.4,0.7
		c-0.2-0.2-0.4-0.5-0.5-0.8c-0.1-0.3-0.2-0.5-0.2-0.7c0-0.2,0.1-0.4,0.3-0.6c0.2-0.2,0.5-0.4,0.9-0.5c0.4-0.2,0.9-0.3,1.4-0.4
		c0.5-0.1,1.1-0.1,1.6-0.1c0.8,0,1.5,0.1,2,0.2c0.5,0.2,1,0.4,1.3,0.7c0.3,0.3,0.6,0.8,0.7,1.3s0.2,1.1,0.2,1.8V136z M43.8,133.5
		c-0.1,0-0.2,0-0.3,0s-0.2,0-0.3,0c-0.4,0-0.7,0.1-1.1,0.1c-0.4,0.1-0.7,0.2-1,0.3c-0.3,0.1-0.5,0.3-0.7,0.6
		c-0.2,0.2-0.3,0.5-0.3,0.9c0,0.4,0.1,0.8,0.4,1c0.2,0.3,0.6,0.4,1.2,0.4c0.3,0,0.5,0,0.8-0.1c0.2-0.1,0.5-0.2,0.7-0.3
		c0.2-0.1,0.3-0.2,0.5-0.4c0.1-0.1,0.2-0.3,0.2-0.4V133.5z"/>
	<path class="st1" d="M52,125.5h-4.7c0-0.1,0-0.1,0-0.2c0-0.1,0-0.1,0-0.2s0-0.1,0-0.2c0-0.3,0.1-0.5,0.3-0.7c0.2-0.2,0.6-0.3,1-0.3
		h10.1c0,0.1,0,0.1,0,0.2c0,0.1,0,0.1,0,0.2c0,0.1,0,0.1,0,0.1c0,0.3-0.1,0.6-0.3,0.8c-0.2,0.2-0.6,0.3-1,0.3H54v13h-2V125.5z"/>
	<path class="st1" d="M68.9,133.4c0,0.7-0.1,1.4-0.3,2.1s-0.5,1.3-0.8,1.8c-0.4,0.5-0.9,0.9-1.5,1.2c-0.6,0.3-1.4,0.5-2.2,0.5
		c-0.9,0-1.6-0.1-2.2-0.4c-0.6-0.3-1.1-0.7-1.5-1.2c-0.4-0.5-0.7-1.1-0.8-1.7s-0.3-1.4-0.3-2.1s0.1-1.4,0.3-2.1
		c0.2-0.7,0.5-1.2,0.9-1.7c0.4-0.5,0.9-0.9,1.5-1.2c0.6-0.3,1.3-0.4,2.1-0.4c0.9,0,1.6,0.1,2.2,0.4c0.6,0.3,1.1,0.7,1.5,1.2
		c0.4,0.5,0.7,1.1,0.8,1.7S68.9,132.6,68.9,133.4z M66.9,133.4c0-0.5,0-0.9-0.1-1.4c-0.1-0.4-0.2-0.9-0.4-1.2
		c-0.2-0.4-0.5-0.6-0.9-0.9c-0.4-0.2-0.8-0.3-1.4-0.3c-0.6,0-1,0.1-1.4,0.3c-0.4,0.2-0.7,0.5-0.9,0.9s-0.4,0.8-0.5,1.2
		c-0.1,0.4-0.1,0.9-0.1,1.4s0,0.9,0.1,1.4c0.1,0.5,0.2,0.9,0.5,1.3s0.5,0.7,0.9,0.9c0.4,0.2,0.8,0.4,1.4,0.4c0.6,0,1.1-0.1,1.5-0.4
		c0.4-0.2,0.7-0.5,0.9-0.9c0.2-0.4,0.3-0.8,0.4-1.3C66.9,134.3,66.9,133.8,66.9,133.4z"/>
	<path class="st1" d="M75.8,128c0.5,0,1.1,0.1,1.6,0.3c0.6,0.2,1,0.6,1.3,1c0.3-0.4,0.8-0.7,1.4-1s1.2-0.4,2-0.4
		c1,0,1.7,0.2,2.2,0.7c0.5,0.4,0.9,1,1,1.6c0.1,0.3,0.1,0.6,0.1,1s0,0.7,0,1v6.2h-1.9v-6.2c0-0.3,0-0.5,0-0.8c0-0.3,0-0.5-0.1-0.7
		c-0.1-0.4-0.3-0.7-0.6-0.9c-0.3-0.2-0.8-0.3-1.4-0.3c-0.5,0-0.9,0.1-1.4,0.3c-0.4,0.2-0.7,0.4-0.9,0.7c0,0.2,0.1,0.5,0.1,0.8
		c0,0.3,0,0.6,0,0.8v6.3h-1.9v-6.2c0-0.3,0-0.6,0-0.9s-0.1-0.5-0.2-0.7c-0.2-0.7-0.9-1.1-2-1.1c-0.3,0-0.6,0-0.9,0.1
		c-0.3,0.1-0.6,0.2-0.8,0.4s-0.4,0.3-0.6,0.5c-0.1,0.2-0.2,0.4-0.2,0.5v7.4h-1.9v-10.4h0.1c0,0,0.1,0,0.1,0c0.1,0,0.1,0,0.1,0
		c0.4,0,0.7,0.1,0.9,0.3c0.2,0.2,0.4,0.5,0.5,0.8c0.3-0.4,0.8-0.7,1.3-0.9C74.4,128.1,75,128,75.8,128z"/>
	<path class="st1" d="M95.5,136.2c0,0.4,0,0.6,0,0.8c0,0.2,0.1,0.3,0.2,0.4c0.1,0.1,0.2,0.2,0.3,0.2c0.1,0,0.3,0,0.5,0v0.9
		c-0.1,0-0.3,0.1-0.5,0.1s-0.4,0-0.6,0c-0.5,0-0.9-0.1-1.2-0.3s-0.5-0.5-0.6-1c-0.4,0.4-0.8,0.7-1.3,0.9c-0.5,0.3-1.2,0.4-2,0.4
		c-0.4,0-0.8,0-1.2-0.1c-0.4-0.1-0.7-0.2-1.1-0.5c-0.3-0.2-0.6-0.5-0.8-0.9c-0.2-0.4-0.3-0.9-0.3-1.5c0-0.8,0.2-1.4,0.6-1.9
		s0.9-0.9,1.4-1.1c0.6-0.3,1.2-0.5,1.8-0.6c0.7-0.1,1.3-0.2,1.8-0.2c0.1,0,0.3,0,0.5,0s0.3,0,0.5,0v-0.3c0-0.7-0.2-1.2-0.5-1.5
		c-0.3-0.3-0.9-0.5-1.8-0.5c-0.7,0-1.2,0.1-1.7,0.3c-0.5,0.2-0.9,0.4-1.3,0.7h-0.2c-0.1-0.2-0.2-0.4-0.3-0.6
		c-0.1-0.2-0.1-0.4-0.1-0.5c0-0.2,0.1-0.4,0.4-0.5c0.2-0.2,0.5-0.3,0.9-0.5s0.8-0.2,1.2-0.3c0.5-0.1,0.9-0.1,1.3-0.1
		c0.7,0,1.4,0.1,1.9,0.2c0.5,0.2,0.9,0.4,1.2,0.7c0.3,0.3,0.5,0.7,0.7,1.2c0.1,0.5,0.2,1,0.2,1.7V136.2z M93.7,133.4H93
		c-0.5,0-0.9,0-1.4,0.1s-0.9,0.2-1.3,0.3c-0.4,0.2-0.7,0.4-1,0.7c-0.3,0.3-0.4,0.7-0.4,1.1c0,0.4,0.1,0.8,0.4,1.2
		c0.3,0.3,0.8,0.5,1.5,0.5c0.4,0,0.7-0.1,1.1-0.2c0.3-0.1,0.6-0.2,0.9-0.4c0.3-0.2,0.5-0.3,0.6-0.5c0.2-0.2,0.2-0.4,0.2-0.6V133.4z"
		/>
	<path class="st1" d="M98.2,137.3c-0.1-0.3-0.2-0.6-0.2-0.9c0-0.3,0-0.7,0-1v-10.3h0.1c0,0,0.1,0,0.1,0c0.1,0,0.1,0,0.1,0
		c0.4,0,0.7,0.1,1,0.3c0.3,0.2,0.4,0.6,0.4,1.1v1.7h3.3v1.6h-3.3v5.7c0,1.2,0.5,1.8,1.4,1.8c0.2,0,0.5,0,0.7-0.1s0.4-0.2,0.5-0.3
		s0.3-0.2,0.4-0.3s0.2-0.2,0.2-0.2c0.2,0.2,0.3,0.4,0.5,0.6c0.1,0.2,0.2,0.4,0.2,0.6c0,0.1-0.1,0.3-0.2,0.4
		c-0.1,0.2-0.3,0.3-0.6,0.4c-0.2,0.1-0.5,0.2-0.9,0.3c-0.3,0.1-0.7,0.1-1.1,0.1c-0.8,0-1.4-0.1-1.8-0.4
		C98.7,138.2,98.3,137.8,98.2,137.3z"/>
	<path class="st1" d="M109.6,137.3c0.4,0,0.8,0,1.1-0.1c0.3-0.1,0.6-0.2,0.8-0.3c0.2-0.1,0.4-0.3,0.6-0.4c0.2-0.1,0.3-0.3,0.4-0.4
		c0.2,0.2,0.3,0.4,0.4,0.7c0.1,0.2,0.2,0.4,0.2,0.6c0,0.1,0,0.2-0.1,0.4s-0.2,0.3-0.4,0.4c-0.3,0.3-0.8,0.5-1.3,0.6
		c-0.5,0.2-1.2,0.3-1.9,0.3c-0.7,0-1.3-0.1-1.9-0.3c-0.6-0.2-1.1-0.5-1.6-1c-0.5-0.4-0.8-1-1.1-1.7c-0.3-0.7-0.4-1.6-0.4-2.6
		c0-0.9,0.1-1.7,0.4-2.4c0.3-0.7,0.6-1.2,1.1-1.7c0.4-0.4,0.9-0.8,1.5-1c0.6-0.2,1.1-0.3,1.7-0.3c0.7,0,1.4,0.1,1.9,0.4
		c0.5,0.2,1,0.6,1.3,1c0.3,0.4,0.6,0.9,0.7,1.5c0.2,0.5,0.2,1.1,0.2,1.7c0,0.2,0,0.4,0,0.6c0,0.2,0,0.4-0.1,0.6h-6.9
		c0,1.1,0.3,1.9,0.8,2.6C107.7,137,108.5,137.3,109.6,137.3z M111.4,132.4c0-0.4,0-0.8-0.1-1.1c-0.1-0.3-0.2-0.6-0.4-0.9
		c-0.2-0.3-0.4-0.5-0.8-0.6c-0.3-0.1-0.7-0.2-1.2-0.2c-0.8,0-1.4,0.2-1.9,0.7c-0.5,0.5-0.8,1.2-0.8,2.1H111.4z"/>
</g>
<g>
</g>
<path class="st2" d="M29.5,53.6c4.9,0,9-4,9-9s-9-14-9-14s-9,9.1-9,14S24.6,53.6,29.5,53.6z M98.3,21.6H73.1c-0.3,0-0.5,0-0.8,0.1
	H49.7c-2.5,0-4.6,2-4.6,4.6s2,4.6,4.6,4.6h16.7L46.4,85.1L39,61.4c-0.6-1.9-2.4-3.3-4.4-3.3H23.3c-2.6,0-4.6,2.1-4.6,4.6
	s2.1,4.6,4.6,4.6h7.9l7.5,24.3c1,3.3,3.9,5.5,7.3,5.6c0.1,0,0.2,0,0.2,0c3.3,0,6.2-2,7.4-5.2l22.6-61.2h22c2.6,0,4.6-2.1,4.6-4.6
	S100.9,21.6,98.3,21.6z"/>
</svg>
